# xmcd
#
# Track frame offsets:
#	150
#	14975
#	34601
#	48929
#	68326
#	86004
#	112025
#	128860
#	146213
#	165555
#	182964
#	197815
#	221828
#	235045
#	253131
#	269057
#	282290
#	298007
#	311022
#	323640
#	335275
#
# Disc length: 4581 seconds
#
# Revision: 1
# Processed by: cddbd v1.5.2PL0 Copyright (c) Steve Scherf et al.
# Submitted via: audiograbber 1.83.01
#
DISCID=4b11e315
DTITLE=Lon Milo DuQuette - Sweet Babalon
DYEAR=2014
DGENRE=Acoustic
TTITLE0=I'm Baba Lon
TTITLE1=Never Got Over You
TTITLE2=True Buckaroos
TTITLE3=Last Night I Dreamed of Dead People
TTITLE4=Outside the Box
TTITLE5=Roman Rider
TTITLE6=I Wish I Were Krishna
TTITLE7=Sweet Babylon
TTITLE8=Love's Song
TTITLE9=Cold Lips of Paper
TTITLE10=I Wanna Buy A New Car
TTITLE11=Guardian Angel In Disguise
TTITLE12=I'm Scared
TTITLE13=God For One Hour
TTITLE14=I Love To Get Drunk In The Car
TTITLE15=I Once Was The Hero of Meggido
TTITLE16=Bernice
TTITLE17=When You Fall in Love
TTITLE18=Class Warfare
TTITLE19=Two Copper Pennies
TTITLE20=If We Believed
EXTD=
EXTT0=
EXTT1=
EXTT2=
EXTT3=
EXTT4=
EXTT5=
EXTT6=
EXTT7=
EXTT8=
EXTT9=
EXTT10=
EXTT11=
EXTT12=
EXTT13=
EXTT14=
EXTT15=
EXTT16=
EXTT17=
EXTT18=
EXTT19=
EXTT20=
PLAYORDER=
